<svg xmlns="http://www.w3.org/2000/svg" viewBox="0 0 30 30">

  <symbol id="facebook" class="sprite" viewBox="0 0 30 30">
    <title>Facebook</title>
    <path d="M0,0V30H17.47V18h-4V13.37h4V10c0-3.93,2.4-6.07,5.9-6.07a32.42,32.42,0,0,1,3.54.18V8.2H24.49c-1.91,0-2.28.91-2.28,2.24v2.93h4.55L26.16,18h-4V30H30V0H0Z" style="fill:#3a5a98" />
    <path d="M26.16,18l0.59-4.59H22.21V10.43c0-1.33.37-2.24,2.28-2.24h2.43V4.09a32.42,32.42,0,0,0-3.54-.18c-3.51,0-5.91,2.14-5.91,6.07v3.39h-4V18h4V30h4.74V18h4Z" style="fill:#fff" />
  </symbol>

  <symbol id="twitter" class="sprite" viewBox="0 0 30 30">
    <title>Twitter</title>
    <rect width="30" height="30" style="fill:#29a7df" />
    <path d="M25,8.8a8.19,8.19,0,0,1-2.36.65,4.11,4.11,0,0,0,1.8-2.27,8.2,8.2,0,0,1-2.6,1,4.11,4.11,0,0,0-7,3.74A11.64,11.64,0,0,1,6.39,7.62,4.11,4.11,0,0,0,7.66,13.1a4.09,4.09,0,0,1-1.86-.51v0.05a4.11,4.11,0,0,0,3.29,4A4.13,4.13,0,0,1,8,16.81a4.07,4.07,0,0,1-.77-0.07,4.11,4.11,0,0,0,3.83,2.85A8.23,8.23,0,0,1,6,21.34a8.47,8.47,0,0,1-1-.06,11.67,11.67,0,0,0,18-9.83c0-.18,0-0.35,0-0.53A8.36,8.36,0,0,0,25,8.8Z" style="fill:#fff" />
  </symbol>
  
  <symbol id="linkedin" class="sprite" viewBox="0 0 30 30">
    <title>Linkedin</title>
    <rect width="30" height="30" style="fill:#027bb5" />
    <path d="M5.13,11.58H9.37v13.6H5.13V11.58ZM7.25,4.82A2.45,2.45,0,1,1,4.8,7.27,2.45,2.45,0,0,1,7.25,4.82" style="fill:#fff" />
    <path d="M12,11.58h4.05v1.86h0.06a4.44,4.44,0,0,1,4-2.2c4.28,0,5.07,2.81,5.07,6.48v7.46H21V18.57c0-1.58,0-3.61-2.2-3.61s-2.54,1.72-2.54,3.49v6.73H12V11.58Z" style="fill:#fff" />
  </symbol>

  <symbol id="googleplus" class="sprite" viewBox="0 0 30 30">
    <title>Google+</title>
    <rect width="30" height="30" style="fill:#dc4e41" />
    <path d="M3.5,15A7.36,7.36,0,0,1,15.7,9.48c-0.6.66-1.21,1.31-1.86,1.92a5.14,5.14,0,0,0-4.33-.85,4.62,4.62,0,1,0,3.11,8.7A4,4,0,0,0,15,16.47c-1.4,0-2.8,0-4.19,0,0-.83,0-1.66,0-2.49,2.33,0,4.67,0,7,0a8.27,8.27,0,0,1-1.48,5.85,7.22,7.22,0,0,1-7.89,2.1A7.32,7.32,0,0,1,3.5,15Z" style="fill:#fff" />
    <path d="M22.35,11.84h2.08c0,0.7,0,1.39,0,2.09h2.09V16H24.44c0,0.7,0,1.39,0,2.09H22.35c0-.7,0-1.39,0-2.09H20.24V13.94h2.09C22.34,13.23,22.34,12.53,22.35,11.84Z" style="fill:#fff" />
  </symbol>
  
</svg>
